<svg xmlns="http://www.w3.org/2000/svg" xmlns:xlink="http://www.w3.org/1999/xlink" width="400" zoomAndPan="magnify" viewBox="0 0 300 187.499995" height="250" preserveAspectRatio="xMidYMid meet" version="1.0"><defs><clipPath id="b482ec68de"><path d="M 54.769531 0 L 245.507812 0 L 245.507812 157 L 54.769531 157 Z M 54.769531 0 " clip-rule="nonzero"/></clipPath><clipPath id="77738327a0"><path d="M 54.769531 27 L 245.507812 27 L 245.507812 130 L 54.769531 130 Z M 54.769531 27 " clip-rule="nonzero"/></clipPath><clipPath id="0c1dbfba21"><path d="M 54.769531 0 L 245.507812 0 L 245.507812 28 L 54.769531 28 Z M 54.769531 0 " clip-rule="nonzero"/></clipPath></defs><path fill="#e3e4e2" d="M 173.972656 183.601562 L 126.304688 183.601562 L 128.164062 163.199219 L 128.78125 156.402344 L 129.707031 153 L 170.570312 153 L 171.496094 156.402344 L 172.117188 163.199219 Z M 173.972656 183.601562 " fill-opacity="1" fill-rule="nonzero"/><path fill="#b2b1b4" d="M 112.683594 180.203125 L 187.59375 180.203125 L 187.59375 187 L 112.683594 187 Z M 112.683594 180.203125 " fill-opacity="1" fill-rule="nonzero"/><path fill="#b2b1b4" d="M 172.117188 163.199219 L 128.164062 163.199219 L 128.78125 156.402344 L 129.707031 153 L 170.570312 153 L 171.496094 156.402344 Z M 172.117188 163.199219 " fill-opacity="1" fill-rule="nonzero"/><g clip-path="url(#b482ec68de)"><path fill="#e3e4e2" d="M 65.011719 0 L 235.265625 0 C 235.933594 0 236.597656 0.0664062 237.257812 0.195312 C 237.914062 0.328125 238.554688 0.519531 239.171875 0.777344 C 239.792969 1.03125 240.382812 1.347656 240.941406 1.71875 C 241.496094 2.089844 242.011719 2.515625 242.488281 2.988281 C 242.960938 3.460938 243.386719 3.976562 243.757812 4.535156 C 244.128906 5.089844 244.445312 5.679688 244.703125 6.296875 C 244.957031 6.914062 245.152344 7.554688 245.28125 8.210938 C 245.414062 8.867188 245.480469 9.53125 245.480469 10.199219 L 245.480469 146.199219 C 245.480469 146.871094 245.414062 147.535156 245.28125 148.191406 C 245.152344 148.847656 244.957031 149.484375 244.703125 150.105469 C 244.445312 150.722656 244.128906 151.3125 243.757812 151.867188 C 243.386719 152.425781 242.960938 152.941406 242.488281 153.414062 C 242.011719 153.886719 241.496094 154.308594 240.941406 154.683594 C 240.382812 155.054688 239.792969 155.367188 239.171875 155.625 C 238.554688 155.882812 237.914062 156.074219 237.257812 156.207031 C 236.597656 156.335938 235.933594 156.402344 235.265625 156.402344 L 65.011719 156.402344 C 64.34375 156.402344 63.675781 156.335938 63.019531 156.207031 C 62.363281 156.074219 61.722656 155.882812 61.105469 155.625 C 60.484375 155.367188 59.894531 155.054688 59.335938 154.683594 C 58.78125 154.308594 58.265625 153.886719 57.789062 153.414062 C 57.316406 152.941406 56.890625 152.425781 56.519531 151.867188 C 56.148438 151.3125 55.832031 150.722656 55.574219 150.105469 C 55.320312 149.484375 55.125 148.847656 54.992188 148.191406 C 54.863281 147.535156 54.796875 146.871094 54.796875 146.199219 L 54.796875 10.199219 C 54.796875 9.53125 54.863281 8.867188 54.992188 8.210938 C 55.125 7.554688 55.320312 6.914062 55.574219 6.296875 C 55.832031 5.679688 56.148438 5.089844 56.519531 4.535156 C 56.890625 3.976562 57.316406 3.460938 57.789062 2.988281 C 58.265625 2.515625 58.78125 2.089844 59.335938 1.71875 C 59.894531 1.347656 60.484375 1.03125 61.105469 0.777344 C 61.722656 0.519531 62.363281 0.328125 63.019531 0.195312 C 63.675781 0.0664062 64.34375 0 65.011719 0 Z M 65.011719 0 " fill-opacity="1" fill-rule="nonzero"/></g><g clip-path="url(#77738327a0)"><path fill="#4e4e4f" d="M 54.796875 27.199219 L 245.480469 27.199219 L 245.480469 129.199219 L 54.796875 129.199219 Z M 54.796875 27.199219 " fill-opacity="1" fill-rule="nonzero"/></g><g clip-path="url(#0c1dbfba21)"><path fill="#0093b9" d="M 65.011719 0 L 235.265625 0 C 235.933594 0 236.597656 0.0664062 237.257812 0.195312 C 237.914062 0.328125 238.554688 0.519531 239.171875 0.777344 C 239.792969 1.03125 240.382812 1.347656 240.941406 1.71875 C 241.496094 2.089844 242.011719 2.515625 242.488281 2.988281 C 242.960938 3.460938 243.386719 3.976562 243.757812 4.535156 C 244.128906 5.089844 244.445312 5.679688 244.703125 6.296875 C 244.957031 6.914062 245.152344 7.554688 245.28125 8.210938 C 245.414062 8.867188 245.480469 9.53125 245.480469 10.199219 L 245.480469 27.199219 L 54.796875 27.199219 L 54.796875 10.199219 C 54.796875 9.53125 54.863281 8.867188 54.992188 8.210938 C 55.125 7.554688 55.320312 6.914062 55.574219 6.296875 C 55.832031 5.679688 56.148438 5.089844 56.519531 4.535156 C 56.890625 3.976562 57.316406 3.460938 57.789062 2.988281 C 58.265625 2.515625 58.78125 2.089844 59.335938 1.71875 C 59.894531 1.347656 60.484375 1.03125 61.105469 0.777344 C 61.722656 0.519531 62.363281 0.328125 63.019531 0.195312 C 63.675781 0.0664062 64.34375 0 65.011719 0 Z M 65.011719 0 " fill-opacity="1" fill-rule="nonzero"/></g><path fill="#eb5849" d="M 65.011719 10.199219 L 71.824219 10.199219 L 71.824219 17 L 65.011719 17 Z M 65.011719 10.199219 " fill-opacity="1" fill-rule="nonzero"/><path fill="#f6bc1b" d="M 78.632812 10.199219 L 85.441406 10.199219 L 85.441406 17 L 78.632812 17 Z M 78.632812 10.199219 " fill-opacity="1" fill-rule="nonzero"/><path fill="#85bb40" d="M 92.253906 10.199219 L 99.0625 10.199219 L 99.0625 17 L 92.253906 17 Z M 92.253906 10.199219 " fill-opacity="1" fill-rule="nonzero"/><path fill="#b2b1b4" d="M 146.734375 139.402344 L 153.542969 139.402344 L 153.542969 146.199219 L 146.734375 146.199219 Z M 146.734375 139.402344 " fill-opacity="1" fill-rule="nonzero"/><path fill="#eb5849" d="M 68.417969 68 L 75.226562 68 L 75.226562 74.800781 L 68.417969 74.800781 Z M 68.417969 68 " fill-opacity="1" fill-rule="nonzero"/><path fill="#0093b9" d="M 82.039062 68 L 133.113281 68 L 133.113281 74.800781 L 82.039062 74.800781 Z M 82.039062 68 " fill-opacity="1" fill-rule="nonzero"/><path fill="#85bb40" d="M 68.417969 81.601562 L 75.226562 81.601562 L 75.226562 88.402344 L 68.417969 88.402344 Z M 68.417969 81.601562 " fill-opacity="1" fill-rule="nonzero"/><path fill="#eb5849" d="M 82.039062 81.601562 L 170.570312 81.601562 L 170.570312 88.402344 L 82.039062 88.402344 Z M 82.039062 81.601562 " fill-opacity="1" fill-rule="nonzero"/><path fill="#0093b9" d="M 68.417969 95.199219 L 75.226562 95.199219 L 75.226562 102 L 68.417969 102 Z M 68.417969 95.199219 " fill-opacity="1" fill-rule="nonzero"/><path fill="#e3e4e2" d="M 82.039062 95.199219 L 146.734375 95.199219 L 146.734375 102 L 82.039062 102 Z M 82.039062 95.199219 " fill-opacity="1" fill-rule="nonzero"/><path fill="#eb5849" d="M 68.417969 108.800781 L 75.226562 108.800781 L 75.226562 115.601562 L 68.417969 115.601562 Z M 68.417969 108.800781 " fill-opacity="1" fill-rule="nonzero"/><path fill="#85bb40" d="M 82.039062 108.800781 L 180.785156 108.800781 L 180.785156 115.601562 L 82.039062 115.601562 Z M 82.039062 108.800781 " fill-opacity="1" fill-rule="nonzero"/><path fill="#e3e4e2" d="M 76.226562 60.203125 L 69.414062 53.40625 C 69.097656 53.085938 68.851562 52.71875 68.675781 52.300781 C 68.503906 51.886719 68.417969 51.453125 68.417969 51 C 68.417969 50.550781 68.503906 50.117188 68.675781 49.699219 C 68.851562 49.28125 69.097656 48.914062 69.414062 48.597656 L 76.226562 41.796875 L 81.039062 46.605469 L 76.636719 51 L 81.039062 55.394531 Z M 76.226562 60.203125 " fill-opacity="1" fill-rule="nonzero"/><path fill="#e3e4e2" d="M 108.28125 60.203125 L 103.464844 55.394531 L 107.867188 51 L 103.464844 46.605469 L 108.28125 41.796875 L 115.089844 48.59375 C 115.410156 48.914062 115.65625 49.28125 115.828125 49.699219 C 116 50.117188 116.089844 50.550781 116.089844 51 C 116.089844 51.449219 116 51.882812 115.828125 52.300781 C 115.65625 52.71875 115.410156 53.085938 115.089844 53.402344 Z M 108.28125 60.203125 " fill-opacity="1" fill-rule="nonzero"/><path fill="#e3e4e2" d="M 85.617188 60.125 L 92.429688 39.726562 L 98.890625 41.875 L 92.078125 62.277344 Z M 85.617188 60.125 " fill-opacity="1" fill-rule="nonzero"/><path fill="#0093b9" d="M 177.378906 81.601562 L 197.808594 81.601562 L 197.808594 88.402344 L 177.378906 88.402344 Z M 177.378906 81.601562 " fill-opacity="1" fill-rule="nonzero"/><path fill="#eb5849" d="M 187.59375 108.800781 L 194.402344 108.800781 L 194.402344 115.601562 L 187.59375 115.601562 Z M 187.59375 108.800781 " fill-opacity="1" fill-rule="nonzero"/><path fill="#0093b9" d="M 201.214844 108.800781 L 208.023438 108.800781 L 208.023438 115.601562 L 201.214844 115.601562 Z M 201.214844 108.800781 " fill-opacity="1" fill-rule="nonzero"/><path fill="#85bb40" d="M 139.921875 68 L 146.734375 68 L 146.734375 74.800781 L 139.921875 74.800781 Z M 139.921875 68 " fill-opacity="1" fill-rule="nonzero"/></svg>